# xmcd
#
# Track frame offsets:
#	150
#	10935
#	22809
#	37671
#	49238
#	64092
#	74011
#	88352
#	96900
#	107846
#	117096
#	127127
#	142718
#
# Disc length: 2255 seconds
#
# Revision: 0
# Processed by: cddbd v1.5.1PL0 Copyright (c) Steve Scherf et al.
# Submitted via: dBpowerAMP V4.0
#
DISCID=af08cd0d
DTITLE=Will Handsome - Will Handsome
DYEAR=2001
DGENRE=Country
TTITLE0=You don't give a hang about me
TTITLE1=I don't care if the sun don't shine
TTITLE2=East bound and down
TTITLE3=Big river
TTITLE4=Wedding bells
TTITLE5=Paint, powder and perfume
TTITLE6=Hobo II
TTITLE7=Play the music louder
TTITLE8=Hey, good lookin'
TTITLE9=Country boy
TTITLE10=Lawdy, Miss Clawdy
TTITLE11=The river is wide
TTITLE12=This is '51!
EXTD=
EXTT0=
EXTT1=
EXTT2=
EXTT3=
EXTT4=
EXTT5=
EXTT6=
EXTT7=
EXTT8=
EXTT9=
EXTT10=
EXTT11=
EXTT12=
PLAYORDER=
